<?xml version="1.0" encoding="UTF-8" standalone="no"?>
<!DOCTYPE svg PUBLIC "-//W3C//DTD SVG 1.1//EN" "http://www.w3.org/Graphics/SVG/1.1/DTD/svg11.dtd">
<svg width="100%" height="100%" viewBox="0 0 480 480" version="1.1" xmlns="http://www.w3.org/2000/svg" xmlns:xlink="http://www.w3.org/1999/xlink" xml:space="preserve" xmlns:serif="http://www.serif.com/" style="fill-rule:evenodd;clip-rule:evenodd;stroke-linejoin:round;stroke-miterlimit:2;">
    <path d="M240,40C129.72,40 40,129.72 40,240C40,350.28 129.72,440 240,440C350.28,440 440,350.28 440,240C440,129.72 350.28,40 240,40ZM240,420C140.75,420 60,339.25 60,240C60,140.75 140.75,60 240,60C339.25,60 420,140.75 420,240C420,339.25 339.25,420 240,420Z" style="fill:rgb(129,129,129);fill-rule:nonzero;"/>
    <path d="M392.16,191.02C376.76,143.1 339.49,105.04 291.99,88.72C288.93,87.67 285.68,89.9 285.5,93.13C284.83,105.19 283.38,131.21 282.71,143.42C282.5,147.13 279.43,150 275.72,150L245.83,150C240.53,150 235.44,147.89 231.69,144.14L184.34,96.79C181.42,93.87 176.94,92.94 173.18,94.67C134.19,112.63 103.77,145.82 89.34,186.62C87.02,193.13 91.91,200 98.81,200L202.01,200C210.4,200 218.41,203.51 224.09,209.69L267.36,256.73C269.06,258.58 270,260.99 270,263.5L270,384.44C270,391.09 276.38,395.89 282.78,394.12C325.76,382.21 361.39,352.8 381.68,314.03C383.62,310.33 382.89,305.76 380.04,302.69L335.33,254.45C331.9,250.75 330,245.89 330,240.85L330,210C330,204.48 334.48,200 340,200L385.41,200C390.08,200 393.58,195.46 392.16,191.02ZM304.71,226.18C295.31,234.27 276.64,229.1 262.99,214.64C249.35,200.18 245.9,181.91 255.3,173.82C264.7,165.73 283.37,170.9 297.02,185.36C310.66,199.82 314.1,218.09 304.71,226.18Z" style="fill:rgb(129,129,129);fill-rule:nonzero;"/>
</svg>
