<?xml version="1.0" encoding="UTF-8" standalone="no"?>
<!DOCTYPE svg PUBLIC "-//W3C//DTD SVG 1.1//EN" "http://www.w3.org/Graphics/SVG/1.1/DTD/svg11.dtd">
<svg width="100%" height="100%" viewBox="0 0 24 24" version="1.1" xmlns="http://www.w3.org/2000/svg" xmlns:xlink="http://www.w3.org/1999/xlink" xml:space="preserve" xmlns:serif="http://www.serif.com/" style="fill-rule:evenodd;clip-rule:evenodd;stroke-linejoin:round;stroke-miterlimit:2;">
    <g>
        <path d="M23.76,9.6L23.76,10.86C23.76,10.86 13.318,17.49 13.291,17.559C13.377,16.728 13.31,16.401 13.084,15.787C13.043,15.676 22,10.23 22,10.23L9,2L8.974,11.341C8.437,11.077 8.045,11.021 7.501,11.014C7.492,11.014 7.483,11.009 7.474,11.006L7.5,0.63L8.64,0L23.76,9.6Z" style="fill:rgb(66,66,66);fill-rule:nonzero;"/>
    </g>
    <g transform="matrix(0.0178611,0,0,0.0177395,-4.05573,11.2078)">
        <path d="M596.28,716C398.918,716 238.28,555.362 238.28,358C238.28,160.638 398.918,0 596.28,0C793.641,0 954.28,160.638 954.28,358C954.28,555.362 793.641,716 596.28,716ZM596.28,38.656C420.179,38.656 276.936,181.899 276.936,358C276.936,534.101 420.179,677.344 596.28,677.344C772.38,677.344 915.623,534.101 915.623,358C915.623,181.899 772.38,38.656 596.28,38.656Z" style="fill:rgb(66,66,66);fill-rule:nonzero;"/>
        <path d="M564.925,297.439L658.13,397.945C661.995,401.81 664.358,406.965 664.358,412.334L655.982,611.628C655.767,627.305 666.076,639.761 680.894,634.607C768.944,603.897 822.848,555.362 849.478,492.008C853.344,482.989 852.27,472.68 845.612,465.593L764.434,379.046C758.206,372.603 754.77,364.013 754.77,354.993L754.126,306.888C754.126,294.432 764.22,284.553 776.675,284.553L841.747,285.412C872.457,285.412 875.034,274.03 870.524,261.574C840.244,177.389 785.481,117.902 702.155,86.547C692.705,82.896 682.397,89.554 681.968,99.647L676.599,184.476C676.169,193.711 668.653,200.798 659.633,200.798L614.104,200.583C602.078,200.583 591.77,194.785 586.83,189.845L494.699,97.714C489.116,92.346 480.955,90.627 473.868,93.849C399.992,127.566 349.309,182.114 319.672,259.212C315.163,271.238 324.827,283.909 337.712,283.909L535.933,285.197C546.671,285.627 557.194,289.922 564.925,297.439ZM629.996,244.394C642.667,232.152 672.948,238.166 693.35,259.212C713.537,280.258 725.778,310.109 706.665,326.001C693.135,337.169 670.8,333.088 648.68,313.975C623.983,292.929 615.608,258.353 629.996,244.394Z" style="fill:rgb(66,66,66);fill-rule:nonzero;"/>
    </g>
</svg>
