<?xml version="1.0" encoding="UTF-8" standalone="no"?>
<!DOCTYPE svg PUBLIC "-//W3C//DTD SVG 1.1//EN" "http://www.w3.org/Graphics/SVG/1.1/DTD/svg11.dtd">
<svg width="100%" height="100%" viewBox="0 0 24 24" version="1.1" xmlns="http://www.w3.org/2000/svg" xmlns:xlink="http://www.w3.org/1999/xlink" xml:space="preserve" xmlns:serif="http://www.serif.com/" style="fill-rule:evenodd;clip-rule:evenodd;stroke-linejoin:round;stroke-miterlimit:2;">
    <g transform="matrix(0.761552,0,0,0.761552,4.00374,2.86138)">
        <path d="M3,3C3,1.903 3.903,1 5,1L14.982,1C15.512,1 16.021,1.211 16.396,1.586L20.414,5.604C20.789,5.979 21,6.488 21,7.018L21,21C21,22.097 20.097,23 19,23L4.75,23C4.339,23 4,22.661 4,22.25C4,21.839 4.339,21.5 4.75,21.5L19,21.5C19.274,21.5 19.5,21.274 19.5,21L19.5,8.5L15.5,8.5C14.403,8.5 13.5,7.597 13.5,6.5L13.5,2.5L5,2.5C4.726,2.5 4.5,2.726 4.5,3L4.5,9.25C4.5,9.661 4.161,10 3.75,10C3.339,10 3,9.661 3,9.25L3,3ZM15,2.5L15,6.5C15,6.774 15.226,7 15.5,7L19.5,7C19.496,6.874 19.443,6.753 19.354,6.664L15.336,2.646C15.247,2.557 15.126,2.504 15,2.5Z" style="fill:rgb(192,192,192);fill-rule:nonzero;"/>
    </g>
    <g transform="matrix(0.761552,0,0,0.761552,4.00374,2.86138)">
        <path d="M4.53,12.24C4.659,12.379 4.731,12.561 4.731,12.751C4.731,12.959 4.644,13.158 4.491,13.3L1.852,15.75L4.492,18.2C4.645,18.342 4.732,18.541 4.732,18.75C4.732,19.162 4.393,19.501 3.981,19.501C3.791,19.501 3.609,19.429 3.47,19.3L0.24,16.3C0.087,16.158 -0,15.959 -0,15.75C-0,15.541 0.087,15.342 0.24,15.2L3.47,12.2C3.609,12.071 3.791,12 3.98,12C4.189,12 4.388,12.087 4.53,12.24ZM8.509,13.3C8.356,13.158 8.269,12.959 8.269,12.75C8.269,12.339 8.608,12 9.019,12C9.208,12 9.39,12.071 9.529,12.2L12.76,15.2C12.913,15.342 13,15.541 13,15.75C13,15.959 12.913,16.158 12.76,16.3L9.53,19.3C9.391,19.429 9.209,19.5 9.019,19.5C8.608,19.5 8.269,19.162 8.269,18.75C8.269,18.541 8.356,18.342 8.509,18.2L11.148,15.75L8.508,13.3L8.509,13.3Z" style="fill:rgb(190,190,190);fill-rule:nonzero;"/>
    </g>
</svg>
